<svg width="40" height="40" viewBox="0 0 40 40" fill="none" xmlns="http://www.w3.org/2000/svg">
<path d="M39.4016 24.8381C36.7301 35.5525 25.877 42.0731 15.1601 39.4012C4.44772 36.7301 -2.07358 25.8775 0.599038 15.1639C3.26931 4.44838 14.1225 -2.07268 24.836 0.598468C35.5521 3.26961 42.073 14.1234 39.4013 24.8383L39.4015 24.8381H39.4016Z" fill="#F7931A"/>
<path d="M28.8202 17.1506C29.2183 14.489 27.1917 13.0583 24.4205 12.1039L25.3195 8.49857L23.1246 7.95171L22.2495 11.4621C21.6724 11.3182 21.0799 11.1826 20.4909 11.0482L21.3724 7.51463L19.1788 6.96777L18.2794 10.5719C17.8019 10.4632 17.3329 10.3558 16.8778 10.2426L16.8804 10.2312L13.8535 9.47547L13.2697 11.8195C13.2697 11.8195 14.8981 12.1928 14.8638 12.2157C15.7526 12.4375 15.9133 13.0258 15.8867 13.4922L14.8626 17.5995C14.9238 17.615 15.0032 17.6375 15.0908 17.6727C15.0176 17.6545 14.9397 17.6347 14.8588 17.6153L13.4235 23.3691C13.3148 23.6391 13.0391 24.0443 12.4177 23.8904C12.4397 23.9223 10.8224 23.4923 10.8224 23.4923L9.73267 26.0045L12.589 26.7165C13.1204 26.8497 13.6411 26.9891 14.1539 27.1202L13.2456 30.7669L15.438 31.3138L16.3375 27.7058C16.9364 27.8684 17.5176 28.0183 18.0867 28.1597L17.1902 31.7506L19.3852 32.2975L20.2934 28.6577C24.0362 29.3659 26.8505 29.0804 28.0351 25.6954C28.9896 22.9701 27.9875 21.3982 26.0185 20.3731C27.4527 20.0423 28.5329 19.0992 28.8209 17.1509L28.8202 17.1504L28.8202 17.1506ZM23.8053 24.1819C23.127 26.9072 18.5379 25.434 17.05 25.0646L18.2553 20.2334C19.7431 20.6047 24.5142 21.3397 23.8054 24.1819H23.8053ZM24.4841 17.1111C23.8653 19.59 20.0458 18.3306 18.8067 18.0218L19.8995 13.6402C21.1385 13.949 25.1287 14.5254 24.4843 17.1111H24.4841Z" fill="white"/>
</svg>
